<?xml version="1.0" encoding="utf-8"?>
<!-- Generator: Adobe Illustrator 17.1.0, SVG Export Plug-In . SVG Version: 6.00 Build 0)  -->
<!DOCTYPE svg PUBLIC "-//W3C//DTD SVG 1.1//EN" "http://www.w3.org/Graphics/SVG/1.1/DTD/svg11.dtd">
<svg version="1.1" id="Layer_1" xmlns="http://www.w3.org/2000/svg" xmlns:xlink="http://www.w3.org/1999/xlink" x="0px" y="0px"
	 viewBox="0 131.1 612 529.9" enable-background="new 0 131.1 612 529.9" xml:space="preserve">
<g>
	<g>
		<g>
			<g>
				<g>
					<defs>
						<polygon id="SVGID_1_" points="295.8,396.4 153.2,660.9 459.3,660.9 611.9,396.2 						"/>
					</defs>
					<clipPath id="SVGID_2_">
						<use xlink:href="#SVGID_1_"  overflow="visible"/>
					</clipPath>
					<polygon clip-path="url(#SVGID_2_)" fill="#FDBB30" points="249,437.7 134.7,679.1 563,658.5 					"/>
				</g>
			</g>
			<g>
				<g>
					<defs>
						<polygon id="SVGID_3_" points="295.8,396.4 153.2,660.9 459.3,660.9 611.9,396.2 						"/>
					</defs>
					<clipPath id="SVGID_4_">
						<use xlink:href="#SVGID_3_"  overflow="visible"/>
					</clipPath>
					<polygon clip-path="url(#SVGID_4_)" fill="#FFD200" points="209.8,557.3 114.9,685.5 201.7,637.7 					"/>
				</g>
			</g>
			<g>
				<g>
					<defs>
						<polygon id="SVGID_5_" points="295.8,396.4 153.2,660.9 459.3,660.9 611.9,396.2 						"/>
					</defs>
					<clipPath id="SVGID_6_">
						<use xlink:href="#SVGID_5_"  overflow="visible"/>
					</clipPath>
					<polygon clip-path="url(#SVGID_6_)" fill="#FFDD00" points="296.3,440.5 227.9,377.9 211.4,541.5 338.2,562.4 395.2,531 					
						"/>
				</g>
			</g>
			<g>
				<g>
					<defs>
						<polygon id="SVGID_7_" points="295.8,396.4 153.2,660.9 459.3,660.9 611.9,396.2 						"/>
					</defs>
					<clipPath id="SVGID_8_">
						<use xlink:href="#SVGID_7_"  overflow="visible"/>
					</clipPath>
					<polygon clip-path="url(#SVGID_8_)" fill="#FFD200" points="674.6,377 639.9,332.6 449.4,580.7 500.8,706.1 695.9,404.4 					
						"/>
				</g>
			</g>
			<g>
				<g>
					<defs>
						<polygon id="SVGID_9_" points="295.8,396.4 153.2,660.9 459.3,660.9 611.9,396.2 						"/>
					</defs>
					<clipPath id="SVGID_10_">
						<use xlink:href="#SVGID_9_"  overflow="visible"/>
					</clipPath>
					<polygon opacity="0.97" clip-path="url(#SVGID_10_)" fill="#EEB111" enable-background="new    " points="395.2,531 
						449.4,580.7 422.6,515.4 					"/>
				</g>
			</g>
			<g>
				<g>
					<defs>
						<polygon id="SVGID_11_" points="295.8,396.4 153.2,660.9 459.3,660.9 611.9,396.2 						"/>
					</defs>
					<clipPath id="SVGID_12_">
						<use xlink:href="#SVGID_11_"  overflow="visible"/>
					</clipPath>
					<polygon clip-path="url(#SVGID_12_)" fill="#EEB111" points="449.4,580.7 555.3,442.7 422.6,515.4 					"/>
				</g>
			</g>
			<g>
				<g>
					<defs>
						<polygon id="SVGID_13_" points="295.8,396.4 153.2,660.9 459.3,660.9 611.9,396.2 						"/>
					</defs>
					<clipPath id="SVGID_14_">
						<use xlink:href="#SVGID_13_"  overflow="visible"/>
					</clipPath>
					<polygon clip-path="url(#SVGID_14_)" fill="#EEB111" points="280.6,762 276.8,591.4 114.9,685.5 36.8,790.8 					"/>
				</g>
			</g>
			<g>
				<g>
					<defs>
						<polygon id="SVGID_15_" points="295.8,396.4 153.2,660.9 459.3,660.9 611.9,396.2 						"/>
					</defs>
					<clipPath id="SVGID_16_">
						<use xlink:href="#SVGID_15_"  overflow="visible"/>
					</clipPath>
					<polygon clip-path="url(#SVGID_16_)" fill="#EEB111" points="395.2,531 338.2,562.4 449.4,580.6 					"/>
				</g>
			</g>
			<g>
				<g>
					<defs>
						<polygon id="SVGID_17_" points="295.8,396.4 153.2,660.9 459.3,660.9 611.9,396.2 						"/>
					</defs>
					<clipPath id="SVGID_18_">
						<use xlink:href="#SVGID_17_"  overflow="visible"/>
					</clipPath>
					<polygon opacity="0.98" clip-path="url(#SVGID_18_)" fill="#FFDD00" enable-background="new    " points="449.4,580.7 
						338.2,562.4 276.8,591.5 247.8,782.6 463.8,763.3 500.9,706 					"/>
				</g>
			</g>
			<g>
				<g>
					<defs>
						<polygon id="SVGID_19_" points="295.8,396.4 153.2,660.9 459.3,660.9 611.9,396.2 						"/>
					</defs>
					<clipPath id="SVGID_20_">
						<use xlink:href="#SVGID_19_"  overflow="visible"/>
					</clipPath>
					<path clip-path="url(#SVGID_20_)" fill="#E7A614" d="M357.8,357.5l64.8,157.9l133-72.8c0,0,57.2-74.5,84.3-110L504.4,159.3
						L357.8,357.5z"/>
				</g>
			</g>
			<g>
				<g>
					<defs>
						<polygon id="SVGID_21_" points="295.8,396.4 153.2,660.9 459.3,660.9 611.9,396.2 						"/>
					</defs>
					<clipPath id="SVGID_22_">
						<use xlink:href="#SVGID_21_"  overflow="visible"/>
					</clipPath>
					<polygon clip-path="url(#SVGID_22_)" fill="#FDBB30" points="357.8,357.5 255.2,107.5 227.9,377.9 296.3,440.5 395.2,531 
						422.6,515.4 					"/>
				</g>
			</g>
		</g>
		<g>
			<g>
				<g>
					<defs>
						<polygon id="SVGID_23_" points="152.5,131.1 0,396.1 153.3,660.8 295.7,396.3 						"/>
					</defs>
					<clipPath id="SVGID_24_">
						<use xlink:href="#SVGID_23_"  overflow="visible"/>
					</clipPath>
					<g clip-path="url(#SVGID_24_)">
						<path fill="#B70050" d="M336.8,399.2L149.2,112.6l-183.4,279l200.3,308.5L336.8,399.2z M126.7,488.2l38.4-69l-38.4,69.2
							L126.7,488.2z"/>
						<polygon fill="#8E0C3A" points="178.5,395.8 271.4,229.7 152.7,43 						"/>
						<polygon fill="#7A003C" points="129.3,484.2 129.2,484.3 -83.1,454.1 -90.2,467.8 66.2,597.4 129.3,484.3 						"/>
						<polygon fill="#7A003C" points="129.3,484.3 180.9,635.3 195.5,631.7 178.5,395.7 						"/>
						<polygon fill="#B70050" points="195.5,631.7 480.9,562.9 271.4,229.7 178.5,395.8 						"/>
						<polygon opacity="0.94" fill="#8E0C3A" enable-background="new    " points="199.7,690.2 180.9,635.3 129.3,484.3 66.2,597.4 
							127.4,648.2 201.1,709.3 						"/>
						<polygon fill="#ED1C8F" points="178.5,395.8 153.2,41.8 153.8,42.8 153.2,34.3 40.6,224.8 129.3,484.2 						"/>
						<polygon fill="#B70050" points="129.3,484.2 40.6,224.8 8.5,279.1 -83.1,454.1 129.2,484.3 						"/>
					</g>
				</g>
			</g>
		</g>
		<g>
			<g>
				<g>
					<defs>
						<polygon id="SVGID_25_" points="458.7,131.1 152.5,131.1 295.8,396.3 611.9,396.3 						"/>
					</defs>
					<clipPath id="SVGID_26_">
						<use xlink:href="#SVGID_25_"  overflow="visible"/>
					</clipPath>
					<g clip-path="url(#SVGID_26_)">
						<path fill="#8CD2F4" d="M627.9,251.3c-5.6-2-11.2-3.9-16.8-5.8l-1.2,2.4l-0.3-3l19.8-41.5l-159.7-61.2l-5.4-66.5l-328.3,2
							L110.9,125c7.9,8.4,16.4,17.4,25.4,27l22.4,243.1c33.9-7.7,68.2-15.8,102.1-24.2c0.3-0.3,0.7-0.7,1-1l-1.4,1.4l0.2,0
							c-1.1,0.9-26.5,23.4-39,33.5l149.6-1.3l-45.6-49.1l45.5,48.9l127.3-1.3l32.7,11.3l5.4-11.3l-7.8,16.3l134,14.7
							c0,0,9.3-49.3,12.8-100L627.9,251.3z M136.6,152.4c44.7,47.7,101.2,107.9,160,171C236.8,259.3,143,159.2,136.6,152.4z
							 M478.2,308.9c2.3-0.8,4.6-1.6,6.8-2.3C482.9,307.3,480.6,308.1,478.2,308.9z"/>
						<path fill="#8CD2F4" d="M136.3,152c46.4,49.4,105.5,112.5,166.8,178.2c47.1-47.4,92.3-98.8,123.6-135.9
							C299.7,166.3,191.3,155.8,136.3,152z"/>
						<path fill="#53C6D8" d="M136.3,152c55,3.8,163.4,14.3,290.4,42.3c26.3-31.1,43-52.1,43-52.1l-5.4-66.5l-328.3,2L110.9,125
							C118.8,133.4,127.3,142.4,136.3,152z"/>
						<path opacity="0.61" fill="#50C8E8" enable-background="new    " d="M485,306.6c-4.5-33.8-9.1-70.9-12.4-101.5
							c-15.5-3.9-30.9-7.4-46-10.8c-31.3,37.1-76.5,88.5-123.7,135.9c7.4,8,15,16.1,22.5,24.1C383.7,338.9,438.6,322.8,485,306.6z"
							/>
						<path opacity="0.9" fill="#009FC2" enable-background="new    " d="M472.7,205.1c3.2,30.5,7.9,67.6,12.4,101.5
							c6.8,51.6,13.3,95.4,13.3,95.4l32.7,11.3L610,248l-0.3-3C563.3,229.2,517.2,216.1,472.7,205.1z"/>
						<path fill="#50C8E8" d="M371.1,403.2l127.3-1.3c0,0-6.4-43.8-13.3-95.4c-46.4,16.3-159.5,47.8-159.5,47.8L371.1,403.2z"/>
						<path fill="#00B5CC" d="M472.7,205.1c44.5,11,90.6,24.1,137,39.8l19.8-41.5l-159.7-61.2C467.5,146.6,469.2,171.9,472.7,205.1z
							"/>
						<path fill="#50C8E8" d="M472.7,205.1c-3.4-33.2-5.2-58.5-2.9-62.9c0,0-16.7,21-43,52.1C441.8,197.7,457.1,201.2,472.7,205.1z"
							/>
						<path opacity="0.64" fill="#009FC2" enable-background="new    " d="M611.1,245.5l-82.5,172.7l134,14.7c0,0,9.3-49.3,12.8-100
							l-47.4-81.7C622.3,249.3,616.7,247.3,611.1,245.5z"/>
						<path opacity="0.6" fill="#72CDF4" enable-background="new    " d="M158.7,395.1c33.9-7.7,68.2-15.8,102.1-24.2
							c14-12.9,28.2-26.6,42.3-40.7C241.7,264.5,136.3,152,136.3,152L158.7,395.1z"/>
						<polygon fill="#50C8E8" points="303,330.2 260.4,371.3 325.6,354.3 						"/>
						<path fill="#00B5CC" d="M325.6,354.3l-64.9,16.8c0,0-26.4,23.3-39.1,33.6l149.6-1.3L325.6,354.3z"/>
					</g>
				</g>
			</g>
		</g>
	</g>
	<g>
		<path fill="#FFFFFF" d="M556.8,134.5c11.3,0,20.2,9.1,20.2,20.6c0,11.5-9,20.6-20.2,20.6c-11.1,0-20-9-20-20.6
			C536.8,143.6,545.7,134.5,556.8,134.5z M556.8,173.3c10,0,17.7-7.9,17.7-18.2c0-10.2-7.7-18.2-17.7-18.2c-9.8,0-17.5,8-17.5,18.2
			C539.4,165.4,547,173.3,556.8,173.3z M550.2,143.7h7.6c3.9,0,6.6,2.6,6.6,6.6c0,3.4-2.1,5.5-4.4,6.1v0.1c0,0,0.2,0.3,0.7,1.2
			l4.5,8.7h-2.8l-4.8-9.5h-4.9v9.5h-2.5L550.2,143.7L550.2,143.7z M557.5,154.8c2.6,0,4.3-1.7,4.3-4.5c0-2.7-1.7-4.3-4.3-4.3h-4.8
			v8.8H557.5z"/>
	</g>
</g>
</svg>
